<svg width="564" height="516" viewBox="0 0 564 516" fill="none" xmlns="http://www.w3.org/2000/svg">
  <g opacity="0.7" clip-path="url(#clip0_373_721)">
    <path d="M0.555301 493.865C0.363203 493.865 0.171105 493.758 0.064384 493.587C-0.0850256 493.309 0.0216956 492.988 0.277826 492.839C11.2701 486.814 21.0244 473.374 24.5249 459.4L69.3691 280.99C74.8759 259.068 92.1861 243.962 104.907 243.578C111.417 243.364 116.22 247.103 118.397 254.026L131.054 294.216C132.42 298.532 134.981 301.545 138.503 302.912C142.815 304.622 148.364 303.767 154.084 300.519L163.134 295.391C173.38 289.601 182.792 276.888 186.57 263.812C192.589 242.915 209.024 229.027 220.806 228.13C226.868 227.66 231.671 230.566 234.296 236.27L248.319 266.718C249.899 270.158 252.439 272.508 255.662 273.555C259.866 274.922 265.138 273.982 270.538 270.927L280.912 265.051C291.861 258.855 301.744 244.86 304.988 231.014L349.918 38.2675C354.976 16.6233 372.585 0.74803 385.221 0.0215705C391.667 -0.363026 396.576 3.11971 398.945 9.76468L467.375 202.298C468.805 206.336 471.388 209.135 474.803 210.417C479.093 212.02 484.557 211.144 490.192 207.96L525.197 188.153C525.474 188.004 525.794 188.089 525.944 188.367C526.093 188.645 526.008 188.965 525.73 189.115L490.726 208.921C484.792 212.276 479.008 213.173 474.397 211.464C470.662 210.075 467.866 207.02 466.308 202.661L397.878 10.1493C395.658 3.91027 391.283 0.833496 385.264 1.15399C373.012 1.83772 355.915 17.3711 350.985 38.5239L306.055 231.271C302.704 245.608 292.822 259.581 281.445 266.013L271.072 271.888C265.395 275.093 259.802 276.076 255.299 274.602C251.777 273.47 249.002 270.906 247.295 267.166L233.271 236.719C230.817 231.399 226.527 228.792 220.87 229.22C209.451 230.096 193.507 243.663 187.616 264.09C183.774 277.444 174.148 290.413 163.668 296.332L154.618 301.46C148.599 304.857 142.729 305.733 138.076 303.917C134.234 302.4 131.438 299.152 129.965 294.515L117.308 254.325C115.259 247.83 111.012 244.497 104.907 244.646C92.8478 245.009 75.7083 260.115 70.3936 281.225L25.6134 459.657C22.0276 473.908 12.0812 487.625 0.832776 493.8C0.747399 493.843 0.662023 493.865 0.576646 493.865H0.555301Z" fill="white"/>
    <path d="M38.2272 516C38.0351 516 37.843 515.893 37.7363 515.722C37.5868 515.444 37.6936 515.124 37.9497 514.974C48.942 508.949 58.6963 495.51 62.1967 481.536L107.041 303.126C112.548 281.204 129.858 266.098 142.579 265.713C149.11 265.478 153.892 269.239 156.069 276.161L168.726 316.352C170.092 320.668 172.653 323.68 176.175 325.069C180.486 326.757 186.036 325.924 191.756 322.676L200.806 317.548C211.051 311.758 220.464 299.045 224.242 285.969C230.261 265.072 246.696 251.184 258.478 250.287C264.54 249.817 269.343 252.722 271.968 258.427L285.991 288.874C287.571 292.314 290.11 294.665 293.333 295.712C297.538 297.079 302.81 296.139 308.21 293.084L318.584 287.208C329.533 281.012 339.416 267.017 342.66 253.171L387.59 60.4243C392.627 38.7801 410.236 22.9048 422.872 22.1997C429.339 21.7724 434.227 25.2978 436.596 31.9428L505.026 224.476C506.456 228.514 509.038 231.313 512.453 232.595C516.743 234.198 522.208 233.322 527.843 230.138L563.146 210.16C563.402 210.011 563.744 210.096 563.893 210.374C564.042 210.652 563.957 210.972 563.68 211.122L528.376 231.1C522.442 234.454 516.658 235.352 512.069 233.642C508.334 232.253 505.538 229.198 503.98 224.839L435.571 32.2633C433.352 26.0243 429.019 22.9262 422.957 23.268C410.705 23.9517 393.609 39.4852 388.678 60.638L343.749 253.385C340.397 267.722 330.515 281.695 319.139 288.127L308.765 294.002C303.088 297.207 297.496 298.19 292.992 296.716C289.47 295.584 286.695 293.02 284.988 289.28L270.965 258.833C268.51 253.513 264.22 250.906 258.564 251.334C247.145 252.21 231.2 265.777 225.309 286.204C221.467 299.558 211.841 312.527 201.361 318.446L192.311 323.574C186.292 326.992 180.422 327.847 175.791 326.031C171.949 324.514 169.153 321.266 167.68 316.63L155.023 276.439C152.974 269.944 148.748 266.589 142.622 266.76C130.562 267.123 113.423 282.23 108.108 303.34L63.264 481.75C59.6781 496.001 49.7317 509.718 38.4833 515.893C38.3979 515.936 38.3126 515.957 38.2272 515.957V516Z" fill="white"/>
    <path d="M430.364 24.9988C430.364 24.9988 430.172 24.9774 430.086 24.9133L392.094 2.58538C391.838 2.43581 391.752 2.09395 391.902 1.83755C392.051 1.58115 392.393 1.49569 392.649 1.64525L430.641 23.9732C430.898 24.1228 430.983 24.4646 430.834 24.721C430.727 24.892 430.556 24.9988 430.364 24.9988Z" fill="#C4C4C4"/>
    <path d="M267.166 253.641C267.166 253.641 266.974 253.62 266.888 253.556L228.447 230.907C228.191 230.758 228.106 230.416 228.255 230.16C228.405 229.903 228.746 229.818 229.002 229.967L267.443 252.616C267.699 252.765 267.785 253.107 267.635 253.363C267.529 253.534 267.358 253.641 267.166 253.641Z" fill="#C4C4C4"/>
    <path d="M150.541 269.153C150.541 269.153 150.348 269.132 150.263 269.068L110.2 245.565C109.944 245.415 109.837 245.073 110.008 244.817C110.157 244.56 110.499 244.475 110.755 244.625L150.818 268.128C151.074 268.277 151.181 268.619 151.01 268.875C150.903 269.046 150.733 269.153 150.541 269.153Z" fill="#C4C4C4"/>
    <path d="M0.555301 493.865C0.363203 493.865 0.171105 493.758 0.064384 493.587C-0.0850256 493.309 0.0216956 492.988 0.277826 492.839C11.2701 486.814 21.0244 473.374 24.5249 459.4L69.3691 280.99C74.8759 259.068 92.1861 243.962 104.907 243.578C111.417 243.364 116.22 247.103 118.397 254.026L131.054 294.216C132.42 298.532 134.981 301.545 138.503 302.912C142.815 304.622 148.364 303.767 154.084 300.519L163.134 295.391C173.38 289.601 182.792 276.888 186.57 263.812C192.589 242.915 209.024 229.027 220.806 228.13C226.868 227.66 231.671 230.566 234.296 236.27L248.319 266.718C249.899 270.158 252.439 272.508 255.662 273.555C259.866 274.922 265.138 273.982 270.538 270.927L280.912 265.051C291.861 258.855 301.744 244.86 304.988 231.014L349.918 38.2675C354.976 16.6233 372.585 0.74803 385.221 0.0215705C391.667 -0.363026 396.576 3.11971 398.945 9.76468L467.375 202.298C468.805 206.336 471.388 209.135 474.803 210.417C479.093 212.02 484.557 211.144 490.192 207.96L525.197 188.153C525.474 188.004 525.794 188.089 525.944 188.367C526.093 188.645 526.008 188.965 525.73 189.115L490.726 208.921C484.792 212.276 479.008 213.173 474.397 211.464C470.662 210.075 467.866 207.02 466.308 202.661L397.878 10.1493C395.658 3.91027 391.283 0.833496 385.264 1.15399C373.012 1.83772 355.915 17.3711 350.985 38.5239L306.055 231.271C302.704 245.608 292.822 259.581 281.445 266.013L271.072 271.888C265.395 275.093 259.802 276.076 255.299 274.602C251.777 273.47 249.002 270.906 247.295 267.166L233.271 236.719C230.817 231.399 226.527 228.792 220.87 229.22C209.451 230.096 193.507 243.663 187.616 264.09C183.774 277.444 174.148 290.413 163.668 296.332L154.618 301.46C148.599 304.857 142.729 305.733 138.076 303.917C134.234 302.4 131.438 299.152 129.965 294.515L117.308 254.325C115.259 247.83 111.012 244.497 104.907 244.646C92.8478 245.009 75.7083 260.115 70.3936 281.225L25.6134 459.657C22.0276 473.908 12.0812 487.625 0.832776 493.8C0.747399 493.843 0.662023 493.865 0.576646 493.865H0.555301Z" fill="#C4C4C4"/>
    <path d="M38.2272 516C38.0351 516 37.843 515.893 37.7363 515.722C37.5868 515.444 37.6936 515.124 37.9497 514.974C48.942 508.949 58.6963 495.51 62.1967 481.536L107.041 303.126C112.548 281.204 129.858 266.098 142.579 265.713C149.11 265.478 153.892 269.239 156.069 276.161L168.726 316.352C170.092 320.668 172.653 323.68 176.175 325.069C180.486 326.757 186.036 325.924 191.756 322.676L200.806 317.548C211.051 311.758 220.464 299.045 224.242 285.969C230.261 265.072 246.696 251.184 258.478 250.287C264.54 249.817 269.343 252.722 271.968 258.427L285.991 288.874C287.571 292.314 290.11 294.665 293.333 295.712C297.538 297.079 302.81 296.139 308.21 293.084L318.584 287.208C329.533 281.012 339.416 267.017 342.66 253.171L387.59 60.4243C392.627 38.7801 410.236 22.9048 422.872 22.1997C429.339 21.7724 434.227 25.2978 436.596 31.9428L505.026 224.476C506.456 228.514 509.038 231.313 512.453 232.595C516.743 234.198 522.208 233.322 527.843 230.138L563.146 210.16C563.402 210.011 563.744 210.096 563.893 210.374C564.042 210.652 563.957 210.972 563.68 211.122L528.376 231.1C522.442 234.454 516.658 235.352 512.069 233.642C508.334 232.253 505.538 229.198 503.98 224.839L435.571 32.2633C433.352 26.0243 429.019 22.9262 422.957 23.268C410.705 23.9517 393.609 39.4852 388.678 60.638L343.749 253.385C340.397 267.722 330.515 281.695 319.139 288.127L308.765 294.002C303.088 297.207 297.496 298.19 292.992 296.716C289.47 295.584 286.695 293.02 284.988 289.28L270.965 258.833C268.51 253.513 264.22 250.906 258.564 251.334C247.145 252.21 231.2 265.777 225.309 286.204C221.467 299.558 211.841 312.527 201.361 318.446L192.311 323.574C186.292 326.992 180.422 327.847 175.791 326.031C171.949 324.514 169.153 321.266 167.68 316.63L155.023 276.439C152.974 269.944 148.748 266.589 142.622 266.76C130.562 267.123 113.423 282.23 108.108 303.34L63.264 481.75C59.6781 496.001 49.7317 509.718 38.4833 515.893C38.3979 515.936 38.3126 515.957 38.2272 515.957V516Z" fill="white"/>
    <path opacity="0.3" d="M525.452 188.645L490.448 208.451C479.733 214.519 470.256 212.126 466.841 202.49L398.411 9.9568C390.599 -12.0293 357.665 7.47829 350.472 38.3742L305.542 231.121C302.255 245.202 292.352 259.197 281.21 265.5L270.837 271.375C260.762 277.08 251.712 275.328 247.849 266.91L233.826 236.463C225.139 217.596 195.449 235.052 187.146 263.919C183.304 277.23 173.891 289.922 163.454 295.84L154.404 300.968C143.412 307.186 133.764 304.493 130.562 294.323L117.905 254.133C110.755 231.442 77.7354 249.988 69.9448 281.076L25.0792 459.529C21.5574 473.545 11.611 487.262 0.554688 493.309L525.452 188.645Z" fill="url(#paint0_linear_373_721)"/>
    <path opacity="0.3" d="M563.808 209.861L528.142 230.053C517.427 236.121 507.95 233.728 504.535 224.091L436.106 31.5369C428.294 9.55079 395.359 29.0584 388.167 59.9543L343.237 252.701C339.95 266.782 330.046 280.777 318.905 287.08L308.531 292.956C298.457 298.66 289.407 296.908 285.543 288.49L271.52 258.043C262.833 239.176 233.143 256.633 224.84 285.499C220.998 298.81 211.586 311.502 201.148 317.42L192.098 322.548C181.106 328.766 171.459 326.074 168.257 315.903L155.6 275.713C148.449 253.022 115.43 271.568 107.639 302.656L62.795 481.066C59.2732 495.082 49.3268 508.799 38.2705 514.846L563.808 209.861Z" fill="url(#paint1_linear_373_721)"/>
    <path d="M38.2272 516C38.0351 516 37.843 515.893 37.7363 515.722C37.5868 515.444 37.6936 515.124 37.9497 514.974C48.942 508.949 58.6963 495.51 62.1967 481.536L107.041 303.126C112.548 281.204 129.858 266.098 142.579 265.713C149.11 265.478 153.892 269.239 156.069 276.161L168.726 316.352C170.092 320.668 172.653 323.68 176.175 325.069C180.486 326.757 186.036 325.924 191.756 322.676L200.806 317.548C211.051 311.758 220.464 299.045 224.242 285.969C230.261 265.072 246.696 251.184 258.478 250.287C264.54 249.817 269.343 252.722 271.968 258.427L285.991 288.874C287.571 292.314 290.11 294.665 293.333 295.712C297.538 297.079 302.81 296.139 308.21 293.084L318.584 287.208C329.533 281.012 339.416 267.017 342.66 253.171L387.59 60.4243C392.627 38.7801 410.236 22.9048 422.872 22.1997C429.339 21.7724 434.227 25.2978 436.596 31.9428L505.026 224.476C506.456 228.514 509.038 231.313 512.453 232.595C516.743 234.198 522.208 233.322 527.843 230.138L563.146 210.16C563.402 210.011 563.744 210.096 563.893 210.374C564.042 210.652 563.957 210.972 563.68 211.122L528.376 231.1C522.442 234.454 516.658 235.352 512.069 233.642C508.334 232.253 505.538 229.198 503.98 224.839L435.571 32.2633C433.352 26.0243 429.019 22.9262 422.957 23.268C410.705 23.9517 393.609 39.4852 388.678 60.638L343.749 253.385C340.397 267.722 330.515 281.695 319.139 288.127L308.765 294.002C303.088 297.207 297.496 298.19 292.992 296.716C289.47 295.584 286.695 293.02 284.988 289.28L270.965 258.833C268.51 253.513 264.22 250.906 258.564 251.334C247.145 252.21 231.2 265.777 225.309 286.204C221.467 299.558 211.841 312.527 201.361 318.446L192.311 323.574C186.292 326.992 180.422 327.847 175.791 326.031C171.949 324.514 169.153 321.266 167.68 316.63L155.023 276.439C152.974 269.944 148.748 266.589 142.622 266.76C130.562 267.123 113.423 282.23 108.108 303.34L63.264 481.75C59.6781 496.001 49.7317 509.718 38.4833 515.893C38.3979 515.936 38.3126 515.957 38.2272 515.957V516Z" fill="#C4C4C4"/>
    <path opacity="0.4" d="M132.569 265.606C132.526 271.162 136.966 275.691 142.515 275.756C148.065 275.82 152.59 271.354 152.654 265.799C152.718 260.244 148.257 255.714 142.707 255.65C137.158 255.607 132.633 260.051 132.569 265.606Z" fill="#FF0066"/>
    <path d="M138.246 265.649C138.225 268.064 140.167 270.029 142.558 270.051C144.97 270.072 146.933 268.128 146.955 265.735C146.976 263.32 145.034 261.355 142.643 261.333C140.231 261.312 138.268 263.256 138.246 265.649Z" fill="#FF0066"/>
    <path opacity="0.4" d="M280.506 294.708C280.463 300.263 284.903 304.793 290.453 304.857C296.002 304.921 300.527 300.455 300.591 294.9C300.655 289.345 296.194 284.815 290.645 284.751C285.095 284.708 280.57 289.152 280.506 294.708Z" fill="#FF0066"/>
    <path d="M286.184 294.75C286.162 297.165 288.105 299.13 290.495 299.152C292.907 299.173 294.871 297.229 294.892 294.836C294.914 292.421 292.971 290.456 290.581 290.434C288.169 290.413 286.205 292.357 286.184 294.75Z" fill="#FF0066"/>
    <path opacity="0.4" d="M506.413 233.557C506.371 239.112 510.81 243.642 516.36 243.706C521.909 243.77 526.434 239.304 526.498 233.749C526.562 228.194 522.101 223.664 516.552 223.6C511.002 223.557 506.477 228.002 506.413 233.557Z" fill="#FF0066"/>
    <path d="M512.091 233.6C512.07 236.014 514.012 237.98 516.403 238.001C518.814 238.022 520.778 236.078 520.799 233.685C520.821 231.271 518.878 229.305 516.488 229.283C514.076 229.262 512.112 231.206 512.091 233.6Z" fill="#FF0066"/>
  </g>
  <defs>
    <linearGradient id="paint0_linear_373_721" x1="132.52" y1="111.16" x2="391.626" y2="565.711" gradientUnits="userSpaceOnUse">
      <stop stop-color="#C4C4C4"/>
      <stop offset="0.19" stop-color="#D7D7D7"/>
      <stop offset="0.44" stop-color="#E9E9E9"/>
      <stop offset="0.7" stop-color="#F3F3F4"/>
      <stop offset="1" stop-color="#F7F7F8"/>
    </linearGradient>
    <linearGradient id="paint1_linear_373_721" x1="184.237" y1="186.843" x2="370.159" y2="465.08" gradientUnits="userSpaceOnUse">
      <stop stop-color="#C4C4C4"/>
      <stop offset="0.19" stop-color="#D7D7D7"/>
      <stop offset="0.44" stop-color="#E9E9E9"/>
      <stop offset="0.7" stop-color="#F3F3F4"/>
      <stop offset="1" stop-color="#F7F7F8"/>
    </linearGradient>
    <clipPath id="clip0_373_721">
      <rect width="564" height="516" fill="white"/>
    </clipPath>
  </defs>
</svg>
