<svg width="576" height="631" viewBox="0 0 576 631" fill="none" xmlns="http://www.w3.org/2000/svg">
  <g style="mix-blend-mode:multiply">
    <path d="M217.705 108.946H201.894V124.726H217.705V108.946Z" fill="#F7F7F7"/>
    <path d="M275.061 108.946H259.249V124.726H275.061V108.946Z" fill="#F7F7F7"/>
    <path d="M217.289 55.5846H201.478V71.3647H217.289V55.5846Z" fill="#F7F7F7"/>
    <path d="M131.597 135.229H115.785V151.01H131.597V135.229Z" fill="#F7F7F7"/>
    <path d="M189.002 135.229H173.19V151.01H189.002V135.229Z" fill="#F7F7F7"/>
    <path d="M217.705 135.229H201.894V151.01H217.705V135.229Z" fill="#F7F7F7"/>
    <path d="M246.407 135.229H230.596V151.01H246.407V135.229Z" fill="#F7F7F7"/>
    <path d="M291.525 143.408C291.525 145.864 293.516 147.855 295.972 147.855C298.428 147.855 300.419 145.864 300.419 143.408C300.419 140.952 298.428 138.962 295.972 138.962C293.516 138.962 291.525 140.952 291.525 143.408Z" fill="black"/>
    <path d="M177.021 222.338C177.021 224.794 179.011 226.785 181.467 226.785C183.923 226.785 185.914 224.794 185.914 222.338C185.914 219.883 183.923 217.892 181.467 217.892C179.011 217.892 177.021 219.883 177.021 222.338Z" fill="black"/>
    <path d="M404.918 115.616C404.918 118.072 406.909 120.063 409.365 120.063C411.821 120.063 413.812 118.072 413.812 115.616C413.812 113.16 411.821 111.169 409.365 111.169C406.909 111.169 404.918 113.16 404.918 115.616Z" fill="black"/>
    <path d="M332.465 135.229H316.653V151.01H332.465V135.229Z" fill="#F7F7F7"/>
    <path d="M361.167 135.229H345.355V151.01H361.167V135.229Z" fill="#F7F7F7"/>
    <path d="M131.597 161.513H115.785V177.293H131.597V161.513Z" fill="#F7F7F7"/>
    <path d="M217.705 161.513H201.894V177.293H217.705V161.513Z" fill="#F7F7F7"/>
    <path d="M246.407 161.513H230.596V177.293H246.407V161.513Z" fill="#F7F7F7"/>
    <path d="M160.594 28.9039H144.782V44.6841H160.594V28.9039Z" fill="#F7F7F7"/>
    <path d="M189.497 0H173.686V15.7801H189.497V0Z" fill="#F7F7F7"/>
    <path d="M275.061 161.513H259.249V177.293H275.061V161.513Z" fill="#F7F7F7"/>
    <path d="M332.465 161.513H316.653V177.293H332.465V161.513Z" fill="#F7F7F7"/>
    <path d="M361.167 161.513H345.355V177.293H361.167V161.513Z" fill="#F7F7F7"/>
    <path d="M16.8379 187.796H1.02637V203.576H16.8379V187.796Z" fill="#F7F7F7"/>
    <path d="M74.2432 187.796H58.4316V203.576H74.2432V187.796Z" fill="#F7F7F7"/>
    <path d="M102.896 187.796H87.084V203.576H102.896V187.796Z" fill="#F7F7F7"/>
    <path d="M160.3 187.796H144.488V203.576H160.3V187.796Z" fill="#F7F7F7"/>
    <path d="M217.705 187.796H201.894V203.576H217.705V187.796Z" fill="#F7F7F7"/>
    <path d="M246.407 187.796H230.596V203.576H246.407V187.796Z" fill="#F7F7F7"/>
    <path d="M275.061 187.796H259.249V203.576H275.061V187.796Z" fill="#F7F7F7"/>
    <path d="M303.763 187.796H287.951V203.576H303.763V187.796Z" fill="#F7F7F7"/>
    <path d="M332.465 187.796H316.653V203.576H332.465V187.796Z" fill="#F7F7F7"/>
    <path d="M16.8379 214.08H1.02637V229.86H16.8379V214.08Z" fill="#F7F7F7"/>
    <path d="M45.5401 214.08H29.7285V229.86H45.5401V214.08Z" fill="#F7F7F7"/>
    <path d="M74.2432 214.08H58.4316V229.86H74.2432V214.08Z" fill="#F7F7F7"/>
    <path d="M131.597 214.08H115.785V229.86H131.597V214.08Z" fill="#F7F7F7"/>
    <path d="M160.3 214.08H144.488V229.86H160.3V214.08Z" fill="#F7F7F7"/>
    <path d="M217.705 214.08H201.894V229.86H217.705V214.08Z" fill="#F7F7F7"/>
    <path d="M246.407 214.08H230.596V229.86H246.407V214.08Z" fill="#F7F7F7"/>
    <path d="M275.061 214.08H259.249V229.86H275.061V214.08Z" fill="#F7F7F7"/>
    <path d="M303.763 214.08H287.951V229.86H303.763V214.08Z" fill="#F7F7F7"/>
    <path d="M332.465 214.08H316.653V229.86H332.465V214.08Z" fill="#F7F7F7"/>
    <path d="M361.167 214.08H345.355V229.86H361.167V214.08Z" fill="#F7F7F7"/>
    <path d="M16.8379 240.363H1.02637V256.143H16.8379V240.363Z" fill="#F7F7F7"/>
    <path d="M33.0635 248.145C33.0635 250.601 35.0632 252.592 37.5191 252.592C39.975 252.592 41.9747 250.601 41.9747 248.145C41.9747 245.689 39.975 243.698 37.5191 243.698C35.0632 243.698 33.0635 245.689 33.0635 248.145Z" fill="black"/>
    <path d="M74.2432 240.363H58.4316V256.143H74.2432V240.363Z" fill="#F7F7F7"/>
    <path d="M102.896 240.363H87.084V256.143H102.896V240.363Z" fill="#F7F7F7"/>
    <path d="M131.597 240.363H115.785V256.143H131.597V240.363Z" fill="#F7F7F7"/>
    <path d="M160.3 240.363H144.488V256.143H160.3V240.363Z" fill="#F7F7F7"/>
    <path d="M189.002 240.363H173.19V256.143H189.002V240.363Z" fill="#F7F7F7"/>
    <path d="M217.705 240.363H201.894V256.143H217.705V240.363Z" fill="#F7F7F7"/>
    <path d="M246.407 240.363H230.596V256.143H246.407V240.363Z" fill="#F7F7F7"/>
    <path d="M275.061 240.363H259.249V256.143H275.061V240.363Z" fill="#F7F7F7"/>
    <path d="M303.763 240.363H287.951V256.143H303.763V240.363Z" fill="#F7F7F7"/>
    <path d="M332.465 240.363H316.653V256.143H332.465V240.363Z" fill="#F7F7F7"/>
    <path d="M45.5401 266.647H29.7285V282.427H45.5401V266.647Z" fill="#F7F7F7"/>
    <path d="M74.2432 266.647H58.4316V282.427H74.2432V266.647Z" fill="#F7F7F7"/>
    <path d="M102.896 266.647H87.084V282.427H102.896V266.647Z" fill="#F7F7F7"/>
    <path d="M160.3 266.647H144.488V282.427H160.3V266.647Z" fill="#F7F7F7"/>
    <path d="M189.002 266.647H173.19V282.427H189.002V266.647Z" fill="#F7F7F7"/>
    <path d="M217.705 266.647H201.894V282.427H217.705V266.647Z" fill="#F7F7F7"/>
    <path d="M275.061 266.647H259.249V282.427H275.061V266.647Z" fill="#F7F7F7"/>
    <path d="M303.763 266.647H287.951V282.427H303.763V266.647Z" fill="#F7F7F7"/>
    <path d="M361.167 266.647H345.355V282.427H361.167V266.647Z" fill="#F7F7F7"/>
    <path d="M74.2432 292.93H58.4316V308.71H74.2432V292.93Z" fill="#F7F7F7"/>
    <path d="M160.3 292.93H144.488V308.71H160.3V292.93Z" fill="#F7F7F7"/>
    <path d="M189.002 292.93H173.19V308.71H189.002V292.93Z" fill="#F7F7F7"/>
    <path d="M217.705 292.93H201.894V308.71H217.705V292.93Z" fill="#F7F7F7"/>
    <path d="M246.407 292.93H230.596V308.71H246.407V292.93Z" fill="#F7F7F7"/>
    <path d="M303.763 292.93H287.951V308.71H303.763V292.93Z" fill="#F7F7F7"/>
    <path d="M332.465 292.93H316.653V308.71H332.465V292.93Z" fill="#F7F7F7"/>
    <path d="M556.803 513.602C556.803 511.146 554.803 509.155 552.347 509.155C549.891 509.155 547.891 511.146 547.891 513.602C547.891 516.058 549.891 518.049 552.347 518.049C554.803 518.049 556.803 516.058 556.803 513.602Z" fill="black"/>
    <path d="M515.624 522.496L531.436 522.496L531.436 506.715L515.624 506.715L515.624 522.496Z" fill="#F7F7F7"/>
    <path d="M458.269 522.496L474.081 522.496L474.081 506.715L458.269 506.715L458.269 522.496Z" fill="#F7F7F7"/>
    <path d="M516.087 601.642L531.898 601.642L531.898 585.862L516.087 585.862L516.087 601.642Z" fill="#F7F7F7"/>
    <path d="M492.741 629.435L508.553 629.435L508.553 613.654L492.741 613.654L492.741 629.435Z" fill="#F7F7F7"/>
    <path d="M400.864 522.496L416.676 522.496L416.676 506.715L400.864 506.715L400.864 522.496Z" fill="#F7F7F7"/>
    <path d="M515.624 496.212L531.436 496.212L531.436 480.432L515.624 480.432L515.624 496.212Z" fill="#F7F7F7"/>
    <path d="M486.921 496.212L502.732 496.212L502.732 480.432L486.921 480.432L486.921 496.212Z" fill="#F7F7F7"/>
    <path d="M442.044 487.319C442.044 484.863 440.044 482.872 437.588 482.872C435.132 482.872 433.133 484.863 433.133 487.319C433.133 489.774 435.132 491.765 437.588 491.765C440.044 491.765 442.044 489.774 442.044 487.319Z" fill="black"/>
    <path d="M400.864 496.212L416.676 496.212L416.676 480.432L400.864 480.432L400.864 496.212Z" fill="#F7F7F7"/>
    <path d="M372.161 496.212L387.973 496.212L387.973 480.432L372.161 480.432L372.161 496.212Z" fill="#F7F7F7"/>
    <path d="M515.624 469.929L531.436 469.929L531.436 454.149L515.624 454.149L515.624 469.929Z" fill="#F7F7F7"/>
    <path d="M486.921 469.929L502.732 469.929L502.732 454.149L486.921 454.149L486.921 469.929Z" fill="#F7F7F7"/>
    <path d="M458.269 469.929L474.081 469.929L474.081 454.149L458.269 454.149L458.269 469.929Z" fill="#F7F7F7"/>
    <path d="M429.566 469.929L445.378 469.929L445.378 454.149L429.566 454.149L429.566 469.929Z" fill="#F7F7F7"/>
    <path d="M400.864 469.929L416.676 469.929L416.676 454.149L400.864 454.149L400.864 469.929Z" fill="#F7F7F7"/>
    <path d="M372.161 469.929L387.973 469.929L387.973 454.149L372.161 454.149L372.161 469.929Z" fill="#F7F7F7"/>
    <path d="M544.326 443.645L560.138 443.645L560.138 427.865L544.326 427.865L544.326 443.645Z" fill="#F7F7F7"/>
    <path d="M429.566 443.645L445.378 443.645L445.378 427.865L429.566 427.865L429.566 443.645Z" fill="#F7F7F7"/>
    <path d="M400.864 443.645L416.676 443.645L416.676 427.865L400.864 427.865L400.864 443.645Z" fill="#F7F7F7"/>
    <path d="M372.161 443.645L387.973 443.645L387.973 427.865L372.161 427.865L372.161 443.645Z" fill="#F7F7F7"/>
    <path d="M544.326 417.362L560.138 417.362L560.138 401.582L544.326 401.582L544.326 417.362Z" fill="#F7F7F7"/>
    <path d="M486.921 417.362L502.732 417.362L502.732 401.582L486.921 401.582L486.921 417.362Z" fill="#F7F7F7"/>
    <path d="M458.269 417.362L474.081 417.362L474.081 401.582L458.269 401.582L458.269 417.362Z" fill="#F7F7F7"/>
    <path d="M429.566 417.362L445.378 417.362L445.378 401.582L429.566 401.582L429.566 417.362Z" fill="#F7F7F7"/>
    <path d="M400.864 417.362L416.676 417.362L416.676 401.582L400.864 401.582L400.864 417.362Z" fill="#F7F7F7"/>
    <path d="M372.161 417.362L387.973 417.362L387.973 401.582L372.161 401.582L372.161 417.362Z" fill="#F7F7F7"/>
    <path d="M515.624 391.078L531.436 391.078L531.436 375.298L515.624 375.298L515.624 391.078Z" fill="#F7F7F7"/>
    <path d="M486.921 391.078L502.732 391.078L502.732 375.298L486.921 375.298L486.921 391.078Z" fill="#F7F7F7"/>
    <path d="M458.269 391.078L474.081 391.078L474.081 375.298L458.269 375.298L458.269 391.078Z" fill="#F7F7F7"/>
    <path d="M429.566 391.078L445.378 391.078L445.378 375.298L429.566 375.298L429.566 391.078Z" fill="#F7F7F7"/>
    <path d="M400.864 391.078L416.676 391.078L416.676 375.298L400.864 375.298L400.864 391.078Z" fill="#F7F7F7"/>
    <path d="M544.326 364.795L560.138 364.795L560.138 349.015L544.326 349.015L544.326 364.795Z" fill="#F7F7F7"/>
    <path d="M515.624 364.795L531.436 364.795L531.436 349.015L515.624 349.015L515.624 364.795Z" fill="#F7F7F7"/>
    <path d="M458.269 364.795L474.081 364.795L474.081 349.015L458.269 349.015L458.269 364.795Z" fill="#F7F7F7"/>
    <path d="M429.566 364.795L445.378 364.795L445.378 349.015L429.566 349.015L429.566 364.795Z" fill="#F7F7F7"/>
    <path d="M372.161 364.795L387.973 364.795L387.973 349.015L372.161 349.015L372.161 364.795Z" fill="#F7F7F7"/>
    <path d="M544.326 338.511L560.138 338.511L560.138 322.731L544.326 322.731L544.326 338.511Z" fill="#F7F7F7"/>
    <path d="M515.624 338.511L531.436 338.511L531.436 322.731L515.624 322.731L515.624 338.511Z" fill="#F7F7F7"/>
    <path d="M486.921 338.511L502.732 338.511L502.732 322.731L486.921 322.731L486.921 338.511Z" fill="#F7F7F7"/>
    <path d="M429.566 338.511L445.378 338.511L445.378 322.731L429.566 322.731L429.566 338.511Z" fill="#F7F7F7"/>
    <path d="M400.864 338.511L416.676 338.511L416.676 322.731L400.864 322.731L400.864 338.511Z" fill="#F7F7F7"/>
    <path d="M416.726 135.171H400.914V150.951H416.726V135.171Z" fill="#F7F7F7"/>
    <path d="M359.587 55.5846H343.775V71.3647H359.587V55.5846Z" fill="#F7F7F7"/>
    <path d="M502.783 135.171H486.972V150.951H502.783V135.171Z" fill="#F7F7F7"/>
    <path d="M531.486 135.171H515.675V150.951H531.486V135.171Z" fill="#F7F7F7"/>
    <path d="M416.726 161.454H400.914V177.234H416.726V161.454Z" fill="#F7F7F7"/>
    <path d="M359.587 81.8679H343.775V97.6481H359.587V81.8679Z" fill="#F7F7F7"/>
    <path d="M444.075 60.0314H428.264V75.8115H444.075V60.0314Z" fill="#F7F7F7"/>
    <path d="M445.429 161.454H429.617V177.234H445.429V161.454Z" fill="#F7F7F7"/>
    <path d="M388.288 81.8679H372.477V97.6481H388.288V81.8679Z" fill="#F7F7F7"/>
    <path d="M388.288 33.3508H372.477V49.131H388.288V33.3508Z" fill="#F7F7F7"/>
    <path d="M474.081 161.454H458.27V177.234H474.081V161.454Z" fill="#F7F7F7"/>
    <path d="M416.941 81.8679H401.13V97.6481H416.941V81.8679Z" fill="#F7F7F7"/>
    <path d="M502.783 161.454H486.972V177.234H502.783V161.454Z" fill="#F7F7F7"/>
    <path d="M560.189 161.454H544.377V177.234H560.189V161.454Z" fill="#F7F7F7"/>
    <path d="M388.023 187.738H372.212V203.518H388.023V187.738Z" fill="#F7F7F7"/>
    <path d="M416.726 187.738H400.914V203.518H416.726V187.738Z" fill="#F7F7F7"/>
    <path d="M445.429 187.738H429.617V203.518H445.429V187.738Z" fill="#F7F7F7"/>
    <path d="M461.614 194.546C461.614 197.002 463.614 198.993 466.07 198.993C468.526 198.993 470.526 197.002 470.526 194.546C470.526 192.09 468.526 190.099 466.07 190.099C463.614 190.099 461.614 192.09 461.614 194.546Z" fill="black"/>
    <path d="M566.113 75.5951C566.113 78.051 568.113 80.0419 570.569 80.0419C573.025 80.0419 575.025 78.051 575.025 75.5951C575.025 73.1392 573.025 71.1483 570.569 71.1483C568.113 71.1483 566.113 73.1392 566.113 75.5951Z" fill="black"/>
    <path d="M502.783 187.738H486.972V203.518H502.783V187.738Z" fill="#F7F7F7"/>
    <path d="M531.486 187.738H515.675V203.518H531.486V187.738Z" fill="#F7F7F7"/>
    <path d="M388.023 214.021H372.212V229.802H388.023V214.021Z" fill="#F7F7F7"/>
    <path d="M416.726 214.021H400.914V229.802H416.726V214.021Z" fill="#F7F7F7"/>
    <path d="M445.429 214.021H429.617V229.802H445.429V214.021Z" fill="#F7F7F7"/>
    <path d="M474.081 214.021H458.27V229.802H474.081V214.021Z" fill="#F7F7F7"/>
    <path d="M388.023 240.305H372.212V256.085H388.023V240.305Z" fill="#F7F7F7"/>
    <path d="M416.726 240.305H400.914V256.085H416.726V240.305Z" fill="#F7F7F7"/>
    <path d="M445.429 240.305H429.617V256.085H445.429V240.305Z" fill="#F7F7F7"/>
    <path d="M474.081 240.305H458.27V256.085H474.081V240.305Z" fill="#F7F7F7"/>
    <path d="M502.783 240.305H486.972V256.085H502.783V240.305Z" fill="#F7F7F7"/>
    <path d="M388.023 266.588H372.212V282.368H388.023V266.588Z" fill="#F7F7F7"/>
    <path d="M445.429 266.588H429.617V282.368H445.429V266.588Z" fill="#F7F7F7"/>
    <path d="M474.081 266.588H458.27V282.368H474.081V266.588Z" fill="#F7F7F7"/>
    <path d="M502.783 266.588H486.972V282.368H502.783V266.588Z" fill="#F7F7F7"/>
    <path d="M531.486 266.588H515.675V282.368H531.486V266.588Z" fill="#F7F7F7"/>
    <path d="M560.189 266.588H544.377V282.368H560.189V266.588Z" fill="#F7F7F7"/>
    <path d="M416.726 292.872H400.914V308.652H416.726V292.872Z" fill="#F7F7F7"/>
    <path d="M445.429 292.872H429.617V308.652H445.429V292.872Z" fill="#F7F7F7"/>
    <path d="M474.081 292.872H458.27V308.652H474.081V292.872Z" fill="#F7F7F7"/>
    <path d="M531.486 292.872H515.675V308.652H531.486V292.872Z" fill="#F7F7F7"/>
    <path d="M445.429 319.155H429.617V334.935H445.429V319.155Z" fill="#F7F7F7"/>
    <path d="M259.248 522.496L275.06 522.496L275.06 506.715L259.248 506.715L259.248 522.496Z" fill="#F7F7F7"/>
    <path d="M185.617 513.602C185.617 511.146 183.617 509.155 181.162 509.155C178.706 509.155 176.706 511.146 176.706 513.602C176.706 516.058 178.706 518.049 181.162 518.049C183.617 518.049 185.617 516.058 185.617 513.602Z" fill="black"/>
    <path d="M213.299 621.573C213.299 619.117 211.299 617.126 208.843 617.126C206.387 617.126 204.388 619.117 204.388 621.573C204.388 624.029 206.387 626.02 208.843 626.02C211.299 626.02 213.299 624.029 213.299 621.573Z" fill="black"/>
    <path d="M144.437 522.496L160.249 522.496L160.249 506.715L144.437 506.715L144.437 522.496Z" fill="#F7F7F7"/>
    <path d="M172.12 630.467L187.932 630.467L187.932 614.686L172.12 614.686L172.12 630.467Z" fill="#F7F7F7"/>
    <path d="M87.0839 522.496L102.896 522.496L102.896 506.715L87.0839 506.715L87.0839 522.496Z" fill="#F7F7F7"/>
    <path d="M114.767 630.467L130.578 630.467L130.578 614.686L114.767 614.686L114.767 630.467Z" fill="#F7F7F7"/>
    <path d="M29.6787 522.496L45.4902 522.496L45.4902 506.715L29.6787 506.715L29.6787 522.496Z" fill="#F7F7F7"/>
    <path d="M316.602 496.212L332.414 496.212L332.414 480.432L316.602 480.432L316.602 496.212Z" fill="#F7F7F7"/>
    <path d="M316.602 600.848L332.414 600.848L332.414 585.068L316.602 585.068L316.602 600.848Z" fill="#F7F7F7"/>
    <path d="M287.899 496.212L303.711 496.212L303.711 480.432L287.899 480.432L287.899 496.212Z" fill="#F7F7F7"/>
    <path d="M259.248 496.212L275.06 496.212L275.06 480.432L259.248 480.432L259.248 496.212Z" fill="#F7F7F7"/>
    <path d="M230.546 496.212L246.357 496.212L246.357 480.432L230.546 480.432L230.546 496.212Z" fill="#F7F7F7"/>
    <path d="M173.141 496.212L188.952 496.212L188.952 480.432L173.141 480.432L173.141 496.212Z" fill="#F7F7F7"/>
    <path d="M200.823 604.183L216.635 604.183L216.635 588.403L200.823 588.403L200.823 604.183Z" fill="#F7F7F7"/>
    <path d="M144.437 496.212L160.249 496.212L160.249 480.432L144.437 480.432L144.437 496.212Z" fill="#F7F7F7"/>
    <path d="M172.12 604.183L187.932 604.183L187.932 588.403L172.12 588.403L172.12 604.183Z" fill="#F7F7F7"/>
    <path d="M115.735 496.212L131.547 496.212L131.547 480.432L115.735 480.432L115.735 496.212Z" fill="#F7F7F7"/>
    <path d="M143.418 604.183L159.229 604.183L159.229 588.403L143.418 588.403L143.418 604.183Z" fill="#F7F7F7"/>
    <path d="M70.8564 487.319C70.8564 484.863 68.8567 482.872 66.4008 482.872C63.9449 482.872 61.9452 484.863 61.9452 487.319C61.9452 489.774 63.9449 491.765 66.4008 491.765C68.8567 491.765 70.8564 489.774 70.8564 487.319Z" fill="black"/>
    <path d="M29.6787 496.212L45.4902 496.212L45.4902 480.432L29.6787 480.432L29.6787 496.212Z" fill="#F7F7F7"/>
    <path d="M0.975547 496.212L16.7871 496.212L16.7871 480.432L0.975548 480.432L0.975547 496.212Z" fill="#F7F7F7"/>
    <path d="M316.602 469.929L332.414 469.929L332.414 454.149L316.602 454.149L316.602 469.929Z" fill="#F7F7F7"/>
    <path d="M345.306 469.929L361.117 469.929L361.117 454.149L345.306 454.149L345.306 469.929Z" fill="#F7F7F7"/>
    <path d="M316.602 574.564L332.414 574.564L332.414 558.784L316.602 558.784L316.602 574.564Z" fill="#F7F7F7"/>
    <path d="M342.663 574.564L358.475 574.564L358.475 558.784L342.663 558.784L342.663 574.564Z" fill="#F7F7F7"/>
    <path d="M287.899 469.929L303.711 469.929L303.711 454.149L287.899 454.149L287.899 469.929Z" fill="#F7F7F7"/>
    <path d="M271.725 461.035C271.725 458.579 269.725 456.588 267.269 456.588C264.813 456.588 262.813 458.579 262.813 461.035C262.813 463.491 264.813 465.482 267.269 465.482C269.725 465.482 271.725 463.491 271.725 461.035Z" fill="black"/>
    <path d="M230.546 469.929L246.357 469.929L246.357 454.149L230.546 454.149L230.546 469.929Z" fill="#F7F7F7"/>
    <path d="M201.843 469.929L217.654 469.929L217.654 454.149L201.843 454.149L201.843 469.929Z" fill="#F7F7F7"/>
    <path d="M144.437 469.929L160.249 469.929L160.249 454.149L144.437 454.149L144.437 469.929Z" fill="#F7F7F7"/>
    <path d="M172.12 577.899L187.932 577.899L187.932 562.119L172.12 562.119L172.12 577.899Z" fill="#F7F7F7"/>
    <path d="M115.735 469.929L131.547 469.929L131.547 454.149L115.735 454.149L115.735 469.929Z" fill="#F7F7F7"/>
    <path d="M143.418 577.899L159.229 577.899L159.229 562.119L143.418 562.119L143.418 577.899Z" fill="#F7F7F7"/>
    <path d="M87.0839 469.929L102.896 469.929L102.896 454.149L87.0839 454.149L87.0839 469.929Z" fill="#F7F7F7"/>
    <path d="M114.767 577.899L130.578 577.899L130.578 562.119L114.767 562.119L114.767 577.899Z" fill="#F7F7F7"/>
    <path d="M58.3808 469.929L74.1924 469.929L74.1924 454.149L58.3808 454.149L58.3808 469.929Z" fill="#F7F7F7"/>
    <path d="M29.6787 469.929L45.4902 469.929L45.4902 454.149L29.6787 454.149L29.6787 469.929Z" fill="#F7F7F7"/>
    <path d="M316.602 443.645L332.414 443.645L332.414 427.865L316.602 427.865L316.602 443.645Z" fill="#F7F7F7"/>
    <path d="M0.975547 469.929L16.7871 469.929L16.7871 454.149L0.975548 454.149L0.975547 469.929Z" fill="#F7F7F7"/>
    <path d="M345.306 443.645L361.117 443.645L361.117 427.865L345.306 427.865L345.306 443.645Z" fill="#F7F7F7"/>
    <path d="M316.602 548.281L332.414 548.281L332.414 532.501L316.602 532.501L316.602 548.281Z" fill="#F7F7F7"/>
    <path d="M287.899 443.645L303.711 443.645L303.711 427.865L287.899 427.865L287.899 443.645Z" fill="#F7F7F7"/>
    <path d="M259.248 443.645L275.06 443.645L275.06 427.865L259.248 427.865L259.248 443.645Z" fill="#F7F7F7"/>
    <path d="M230.546 443.645L246.357 443.645L246.357 427.865L230.546 427.865L230.546 443.645Z" fill="#F7F7F7"/>
    <path d="M201.843 443.645L217.654 443.645L217.654 427.865L201.843 427.865L201.843 443.645Z" fill="#F7F7F7"/>
    <path d="M173.141 443.645L188.952 443.645L188.952 427.865L173.141 427.865L173.141 443.645Z" fill="#F7F7F7"/>
    <path d="M200.823 551.616L216.635 551.616L216.635 535.836L200.823 535.836L200.823 551.616Z" fill="#F7F7F7"/>
    <path d="M144.437 443.645L160.249 443.645L160.249 427.865L144.437 427.865L144.437 443.645Z" fill="#F7F7F7"/>
    <path d="M172.12 551.616L187.932 551.616L187.932 535.836L172.12 535.836L172.12 551.616Z" fill="#F7F7F7"/>
    <path d="M115.735 443.645L131.547 443.645L131.547 427.865L115.735 427.865L115.735 443.645Z" fill="#F7F7F7"/>
    <path d="M143.418 551.616L159.229 551.616L159.229 535.836L143.418 535.836L143.418 551.616Z" fill="#F7F7F7"/>
    <path d="M87.0839 443.645L102.896 443.645L102.896 427.865L87.0839 427.865L87.0839 443.645Z" fill="#F7F7F7"/>
    <path d="M114.767 551.616L130.578 551.616L130.578 535.836L114.767 535.836L114.767 551.616Z" fill="#F7F7F7"/>
    <path d="M58.3808 443.645L74.1924 443.645L74.1924 427.865L58.3808 427.865L58.3808 443.645Z" fill="#F7F7F7"/>
    <path d="M29.6787 443.645L45.4902 443.645L45.4902 427.865L29.6787 427.865L29.6787 443.645Z" fill="#F7F7F7"/>
    <path d="M345.306 417.362L361.117 417.362L361.117 401.582L345.306 401.582L345.306 417.362Z" fill="#F7F7F7"/>
    <path d="M316.602 417.362L332.414 417.362L332.414 401.582L316.602 401.582L316.602 417.362Z" fill="#F7F7F7"/>
    <path d="M287.899 417.362L303.711 417.362L303.711 401.582L287.899 401.582L287.899 417.362Z" fill="#F7F7F7"/>
    <path d="M259.248 417.362L275.06 417.362L275.06 401.582L259.248 401.582L259.248 417.362Z" fill="#F7F7F7"/>
    <path d="M230.546 417.362L246.357 417.362L246.357 401.582L230.546 401.582L230.546 417.362Z" fill="#F7F7F7"/>
    <path d="M201.843 417.362L217.654 417.362L217.654 401.582L201.843 401.582L201.843 417.362Z" fill="#F7F7F7"/>
    <path d="M173.141 417.362L188.952 417.362L188.952 401.582L173.141 401.582L173.141 417.362Z" fill="#F7F7F7"/>
    <path d="M144.437 417.362L160.249 417.362L160.249 401.582L144.437 401.582L144.437 417.362Z" fill="#F7F7F7"/>
    <path d="M115.735 417.362L131.547 417.362L131.547 401.582L115.735 401.582L115.735 417.362Z" fill="#F7F7F7"/>
    <path d="M87.0839 417.362L102.896 417.362L102.896 401.582L87.0839 401.582L87.0839 417.362Z" fill="#F7F7F7"/>
    <path d="M345.306 391.078L361.117 391.078L361.117 375.298L345.306 375.298L345.306 391.078Z" fill="#F7F7F7"/>
    <path d="M329.079 382.185C329.079 379.729 327.079 377.738 324.623 377.738C322.168 377.738 320.168 379.729 320.168 382.185C320.168 384.641 322.168 386.632 324.623 386.632C327.079 386.632 329.079 384.641 329.079 382.185Z" fill="black"/>
    <path d="M287.899 391.078L303.711 391.078L303.711 375.298L287.899 375.298L287.899 391.078Z" fill="#F7F7F7"/>
    <path d="M259.248 391.078L275.06 391.078L275.06 375.298L259.248 375.298L259.248 391.078Z" fill="#F7F7F7"/>
    <path d="M230.546 391.078L246.357 391.078L246.357 375.298L230.546 375.298L230.546 391.078Z" fill="#F7F7F7"/>
    <path d="M201.843 391.078L217.654 391.078L217.654 375.298L201.843 375.298L201.843 391.078Z" fill="#F7F7F7"/>
    <path d="M173.141 391.078L188.952 391.078L188.952 375.298L173.141 375.298L173.141 391.078Z" fill="#F7F7F7"/>
    <path d="M144.437 391.078L160.249 391.078L160.249 375.298L144.437 375.298L144.437 391.078Z" fill="#F7F7F7"/>
    <path d="M115.735 391.078L131.547 391.078L131.547 375.298L115.735 375.298L115.735 391.078Z" fill="#F7F7F7"/>
    <path d="M87.0839 391.078L102.896 391.078L102.896 375.298L87.0839 375.298L87.0839 391.078Z" fill="#F7F7F7"/>
    <path d="M58.3808 391.078L74.1924 391.078L74.1924 375.298L58.3808 375.298L58.3808 391.078Z" fill="#F7F7F7"/>
    <path d="M29.6787 391.078L45.4902 391.078L45.4902 375.298L29.6787 375.298L29.6787 391.078Z" fill="#F7F7F7"/>
    <path d="M316.602 364.795L332.414 364.795L332.414 349.015L316.602 349.015L316.602 364.795Z" fill="#F7F7F7"/>
    <path d="M287.899 364.795L303.711 364.795L303.711 349.015L287.899 349.015L287.899 364.795Z" fill="#F7F7F7"/>
    <path d="M259.248 364.795L275.06 364.795L275.06 349.015L259.248 349.015L259.248 364.795Z" fill="#F7F7F7"/>
    <path d="M201.843 364.795L217.654 364.795L217.654 349.015L201.843 349.015L201.843 364.795Z" fill="#F7F7F7"/>
    <path d="M173.141 364.795L188.952 364.795L188.952 349.015L173.141 349.015L173.141 364.795Z" fill="#F7F7F7"/>
    <path d="M144.437 364.795L160.249 364.795L160.249 349.015L144.437 349.015L144.437 364.795Z" fill="#F7F7F7"/>
    <path d="M87.0839 364.795L102.896 364.795L102.896 349.015L87.0839 349.015L87.0839 364.795Z" fill="#F7F7F7"/>
    <path d="M58.3808 364.795L74.1924 364.795L74.1924 349.015L58.3808 349.015L58.3808 364.795Z" fill="#F7F7F7"/>
    <path d="M0.975547 364.795L16.7871 364.795L16.7871 349.015L0.975548 349.015L0.975547 364.795Z" fill="#F7F7F7"/>
    <path d="M287.899 338.511L303.711 338.511L303.711 322.731L287.899 322.731L287.899 338.511Z" fill="#F7F7F7"/>
    <path d="M201.843 338.511L217.654 338.511L217.654 322.731L201.843 322.731L201.843 338.511Z" fill="#F7F7F7"/>
    <path d="M173.141 338.511L188.952 338.511L188.952 322.731L173.141 322.731L173.141 338.511Z" fill="#F7F7F7"/>
    <path d="M144.437 338.511L160.249 338.511L160.249 322.731L144.437 322.731L144.437 338.511Z" fill="#F7F7F7"/>
    <path d="M115.735 338.511L131.547 338.511L131.547 322.731L115.735 322.731L115.735 338.511Z" fill="#F7F7F7"/>
    <path d="M58.3808 338.511L74.1924 338.511L74.1924 322.731L58.3808 322.731L58.3808 338.511Z" fill="#F7F7F7"/>
    <path d="M29.6787 338.511L45.4902 338.511L45.4902 322.731L29.6787 322.731L29.6787 338.511Z" fill="#F7F7F7"/>
    <path d="M15.6748 332.953C15.6748 330.497 13.6751 328.506 11.2192 328.506C8.76329 328.506 6.76355 330.497 6.76355 332.953C6.76355 335.409 8.76329 337.4 11.2192 337.4C13.6751 337.4 15.6748 335.409 15.6748 332.953Z" fill="black"/>
  </g>
  <g filter="url(#filter0_d_241_238)">
    <rect x="91.0068" y="313.698" width="406.032" height="54.6581" rx="27.3291" fill="white"/>
  </g>
  <path d="M470.686 350.677L465.825 345.816C467.179 344.038 467.904 341.862 467.887 339.627C467.895 338.271 467.633 336.926 467.118 335.672C466.602 334.417 465.843 333.277 464.884 332.317C463.925 331.358 462.785 330.599 461.53 330.083C460.275 329.568 458.93 329.307 457.574 329.315C456.217 329.306 454.872 329.567 453.617 330.082C452.362 330.597 451.222 331.357 450.262 332.316C449.303 333.275 448.544 334.416 448.029 335.671C447.513 336.926 447.252 338.271 447.261 339.627C447.252 340.984 447.513 342.329 448.029 343.584C448.544 344.839 449.303 345.979 450.262 346.939C451.222 347.898 452.362 348.657 453.617 349.173C454.872 349.688 456.217 349.949 457.574 349.94C459.808 349.957 461.984 349.231 463.761 347.877L468.623 352.74L470.686 350.677ZM450.208 339.627C450.199 338.658 450.382 337.695 450.749 336.797C451.116 335.899 451.658 335.084 452.344 334.398C453.03 333.712 453.846 333.17 454.744 332.803C455.642 332.436 456.604 332.252 457.574 332.262C458.544 332.252 459.506 332.436 460.404 332.803C461.302 333.169 462.118 333.711 462.804 334.397C463.49 335.083 464.033 335.899 464.4 336.797C464.766 337.695 464.95 338.657 464.941 339.627C464.951 340.598 464.767 341.56 464.401 342.459C464.034 343.357 463.492 344.173 462.806 344.86C462.12 345.546 461.303 346.088 460.405 346.455C459.507 346.821 458.544 347.005 457.574 346.995C456.604 347.005 455.641 346.821 454.743 346.454C453.845 346.087 453.029 345.545 452.343 344.859C451.657 344.173 451.115 343.357 450.748 342.458C450.381 341.56 450.198 340.598 450.208 339.627Z" fill="black"/>
  <defs>
    <filter id="filter0_d_241_238" x="56.0068" y="308.698" width="446.031" height="94.6581" filterUnits="userSpaceOnUse" color-interpolation-filters="sRGB">
      <feFlood flood-opacity="0" result="BackgroundImageFix"/>
      <feColorMatrix in="SourceAlpha" values="0 0 0 0 0 0 0 0 0 0 0 0 0 0 0 0 0 0 127 0" result="hardAlpha"/>
      <feOffset dx="-15" dy="15"/>
      <feGaussianBlur stdDeviation="10"/>
      <feColorMatrix values="0 0 0 0 0.937255 0 0 0 0 0.937255 0 0 0 0 0.937255 0 0 0 1 0"/>
      <feBlend mode="multiply" in2="BackgroundImageFix" result="effect1_dropShadow_241_238"/>
      <feBlend in="SourceGraphic" in2="effect1_dropShadow_241_238" result="shape"/>
    </filter>
  </defs>
</svg>
